<mxfile host="app.diagrams.net" modified="2023-11-29T16:23:54.514Z" agent="Mozilla/5.0 (Macintosh; Intel Mac OS X 10_15_7) AppleWebKit/537.36 (KHTML, like Gecko) Chrome/116.0.5845.2319 YaBrowser/23.9.0.2319 Yowser/2.5 Safari/537.36" version="22.1.5" etag="5X9f0VF1x1y1BAXaTY-Q" type="github">
  <diagram name="Страница — 1" id="E1Hyq9b_lN-tGhl4Tfjq">
    <mxGraphModel>
      <root>
        <mxCell id="0" />
        <mxCell id="1" parent="0" />
      </root>
    </mxGraphModel>
  </diagram>
</mxfile>
